<?xml version="1.0" standalone="no"?>
<svg viewBox="0 0 200 200" xmlns="http://www.w3.org/2000/svg">
  <path fill="rgba(99, 184, 167, 0.5)" d="M42.6,-65.5C52.7,-59.8,56.7,-43.8,60.8,-29.4C64.9,-15,69.1,-2.2,69.2,11.2C69.2,24.7,65.1,38.8,55.5,46C45.9,53.2,30.9,53.5,17.4,56C3.9,58.5,-8.1,63.3,-20.8,63.1C-33.6,63,-47.3,57.9,-58.5,48.6C-69.7,39.4,-78.4,26,-77.4,13C-76.4,0,-65.7,-12.5,-57.1,-23.8C-48.4,-35.1,-41.9,-45.1,-32.8,-51.3C-23.6,-57.5,-11.8,-59.8,2.2,-63.3C16.2,-66.7,32.5,-71.3,42.6,-65.5Z" transform="translate(100 100)" />
</svg>
